# xmcd
#
# Track frame offsets: 
#        150
#        11032
#        23675
#        34590
#        45635
#        55122
#        67517
#        80742
#        90920
#        102907
#        113760
#        124900
#        134785
#
# Disc length: 1946 seconds
#
# Revision: 3
# Processed by: cddbd v1.5.2PL0 Copyright (c) Steve Scherf et al.
# Submitted via: ExactAudioCopy v0.95b4
#
DISCID=9f07980d
DTITLE=Various Artist - The Country Collection - Disc 7
DYEAR=1997
DGENRE=Country
TTITLE0=Kitty Wells - You Better Not Do That
TTITLE1=Bobby Helms - Fraulein
TTITLE2=David Houston - Baby Baby (I Know You're A Lady)
TTITLE3=Faron Young - Wine Me Up
TTITLE4=Jimmy Dean - The First Thing Ev'ry Morning (And The Last Thing
TTITLE4=Ev'ry Night)
TTITLE5=Porter Wagoner - A Satisfied Mind
TTITLE6=Percy Sledge - When A Man Loves A Woman
TTITLE7=Don Gibson - Lonesome Number One
TTITLE8=Donna Fargo - U. S. of A.
TTITLE9=Lynn Anderson - Silver Threads And Golden Needles
TTITLE10=Jimmy Dean - Little Black Book
TTITLE11=Johnny Paycheck - Mr. Lovemaker
TTITLE12=Faron Young - Country Girl
EXTD=
EXTT0=
EXTT1=
EXTT2=
EXTT3=
EXTT4=
EXTT5=
EXTT6=
EXTT7=
EXTT8=
EXTT9=
EXTT10=
EXTT11=
EXTT12=
PLAYORDER=
